<svg width="34" height="34" viewBox="0 0 34 34" fill="none" xmlns="http://www.w3.org/2000/svg">
<path d="M28.6875 0H5.3125C2.37849 0 0 2.37849 0 5.3125V28.6875C0 31.6215 2.37849 34 5.3125 34H28.6875C31.6215 34 34 31.6215 34 28.6875V5.3125C34 2.37849 31.6215 0 28.6875 0Z" fill="#363240"/>
<path d="M25.5 17C25.5 12.325 21.675 8.5 17 8.5C12.325 8.5 8.5 12.325 8.5 17C8.5 21.25 11.5812 24.7562 15.6187 25.3937V19.4437H13.4937V17H15.6187V15.0875C15.6187 12.9625 16.8937 11.7938 18.8062 11.7938C19.7625 11.7938 20.7187 12.0063 20.7187 12.0063V14.1313H19.6562C18.5937 14.1313 18.275 14.7687 18.275 15.4062V17H20.6125L20.1875 19.4437H18.1687V25.5C22.4187 24.8625 25.5 21.25 25.5 17Z" fill="white"/>
</svg>
