<svg width="35" height="34" viewBox="0 0 35 34" fill="none" xmlns="http://www.w3.org/2000/svg">
<path d="M29.3555 0H5.98047C3.04646 0 0.667969 2.37849 0.667969 5.3125V28.6875C0.667969 31.6215 3.04646 34 5.98047 34H29.3555C32.2895 34 34.668 31.6215 34.668 28.6875V5.3125C34.668 2.37849 32.2895 0 29.3555 0Z" fill="#363240"/>
<path d="M17.6684 9.77539C20.0059 9.77539 20.3246 9.77539 21.2809 9.77539C22.1309 9.77539 22.5559 9.98789 22.8746 10.0941C23.2996 10.3066 23.6184 10.4129 23.9371 10.7316C24.2559 11.0504 24.4684 11.3691 24.5746 11.7941C24.6809 12.1129 24.7871 12.5379 24.8934 13.3879C24.8934 14.3441 24.8934 14.5566 24.8934 17.0004C24.8934 19.4441 24.8934 19.6566 24.8934 20.6129C24.8934 21.4629 24.6809 21.8879 24.5746 22.2066C24.3621 22.6316 24.2559 22.9504 23.9371 23.2691C23.6184 23.5879 23.2996 23.8004 22.8746 23.9066C22.5559 24.0129 22.1309 24.1191 21.2809 24.2254C20.3246 24.2254 20.1121 24.2254 17.6684 24.2254C15.2246 24.2254 15.0121 24.2254 14.0559 24.2254C13.2059 24.2254 12.7809 24.0129 12.4621 23.9066C12.0371 23.6941 11.7184 23.5879 11.3996 23.2691C11.0809 22.9504 10.8684 22.6316 10.7621 22.2066C10.6559 21.8879 10.5496 21.4629 10.4434 20.6129C10.4434 19.6566 10.4434 19.4441 10.4434 17.0004C10.4434 14.5566 10.4434 14.3441 10.4434 13.3879C10.4434 12.5379 10.6559 12.1129 10.7621 11.7941C10.9746 11.3691 11.0809 11.0504 11.3996 10.7316C11.7184 10.4129 12.0371 10.2004 12.4621 10.0941C12.7809 9.98789 13.2059 9.88164 14.0559 9.77539C15.0121 9.77539 15.3309 9.77539 17.6684 9.77539ZM17.6684 8.18164C15.2246 8.18164 15.0121 8.18164 14.0559 8.18164C13.0996 8.18164 12.4621 8.39414 11.9309 8.60664C11.3996 8.81914 10.8684 9.13789 10.3371 9.66914C9.80586 10.2004 9.59336 10.6254 9.27461 11.2629C9.06211 11.7941 8.95586 12.4316 8.84961 13.3879C8.84961 14.3441 8.84961 14.6629 8.84961 17.0004C8.84961 19.4441 8.84961 19.6566 8.84961 20.6129C8.84961 21.5691 9.06211 22.2066 9.27461 22.7379C9.48711 23.2691 9.80586 23.8004 10.3371 24.3316C10.8684 24.8629 11.2934 25.0754 11.9309 25.3941C12.4621 25.6066 13.0996 25.7129 14.0559 25.8191C15.0121 25.8191 15.3309 25.8191 17.6684 25.8191C20.0059 25.8191 20.3246 25.8191 21.2809 25.8191C22.2371 25.8191 22.8746 25.6066 23.4059 25.3941C23.9371 25.1816 24.4684 24.8629 24.9996 24.3316C25.5309 23.8004 25.7434 23.3754 26.0621 22.7379C26.2746 22.2066 26.3809 21.5691 26.4871 20.6129C26.4871 19.6566 26.4871 19.3379 26.4871 17.0004C26.4871 14.6629 26.4871 14.3441 26.4871 13.3879C26.4871 12.4316 26.2746 11.7941 26.0621 11.2629C25.8496 10.7316 25.5309 10.2004 24.9996 9.66914C24.4684 9.13789 24.0434 8.92539 23.4059 8.60664C22.8746 8.39414 22.2371 8.28789 21.2809 8.18164C20.3246 8.18164 20.1121 8.18164 17.6684 8.18164Z" fill="white"/>
<path d="M17.6684 12.4316C15.1184 12.4316 13.0996 14.4504 13.0996 17.0004C13.0996 19.5504 15.1184 21.5691 17.6684 21.5691C20.2184 21.5691 22.2371 19.5504 22.2371 17.0004C22.2371 14.4504 20.2184 12.4316 17.6684 12.4316ZM17.6684 19.9754C16.0746 19.9754 14.6934 18.7004 14.6934 17.0004C14.6934 15.4066 15.9684 14.0254 17.6684 14.0254C19.2621 14.0254 20.6434 15.3004 20.6434 17.0004C20.6434 18.5941 19.2621 19.9754 17.6684 19.9754Z" fill="white"/>
<path d="M22.3434 13.3879C22.9302 13.3879 23.4059 12.9122 23.4059 12.3254C23.4059 11.7386 22.9302 11.2629 22.3434 11.2629C21.7566 11.2629 21.2809 11.7386 21.2809 12.3254C21.2809 12.9122 21.7566 13.3879 22.3434 13.3879Z" fill="white"/>
</svg>
