<svg width="35" height="34" viewBox="0 0 35 34" fill="none" xmlns="http://www.w3.org/2000/svg">
<path d="M29.0195 0H5.64453C2.71052 0 0.332031 2.37849 0.332031 5.3125V28.6875C0.332031 31.6215 2.71052 34 5.64453 34H29.0195C31.9535 34 34.332 31.6215 34.332 28.6875V5.3125C34.332 2.37849 31.9535 0 29.0195 0Z" fill="#363240"/>
<path d="M12.657 25.5H9.04453V14.1313H12.657V25.5ZM10.8508 12.5375C9.68203 12.5375 8.83203 11.6875 8.83203 10.5187C8.83203 9.35 9.78828 8.5 10.8508 8.5C12.0195 8.5 12.8695 9.35 12.8695 10.5187C12.8695 11.6875 12.0195 12.5375 10.8508 12.5375ZM25.832 25.5H22.2195V19.3375C22.2195 17.5313 21.4758 17 20.4133 17C19.3508 17 18.2883 17.85 18.2883 19.4437V25.5H14.6758V14.1313H18.0758V15.725C18.3945 14.9813 19.6695 13.8125 21.4758 13.8125C23.4945 13.8125 25.6195 14.9812 25.6195 18.4875V25.5H25.832Z" fill="white"/>
</svg>
