<svg width="34" height="34" viewBox="0 0 34 34" fill="none" xmlns="http://www.w3.org/2000/svg">
<path d="M28.6875 0H5.3125C2.37849 0 0 2.37849 0 5.3125V28.6875C0 31.6215 2.37849 34 5.3125 34H28.6875C31.6215 34 34 31.6215 34 28.6875V5.3125C34 2.37849 31.6215 0 28.6875 0Z" fill="#363240"/>
<path d="M25.075 12.8561C24.8625 12.1123 24.3313 11.5811 23.5875 11.3686C22.3125 11.0498 16.8937 11.0498 16.8937 11.0498C16.8937 11.0498 11.5813 11.0498 10.2 11.3686C9.45626 11.5811 8.925 12.1123 8.7125 12.8561C8.5 14.2373 8.5 16.9998 8.5 16.9998C8.5 16.9998 8.5 19.7623 8.81875 21.1436C9.03125 21.8873 9.5625 22.4186 10.3062 22.6311C11.5812 22.9498 17 22.9498 17 22.9498C17 22.9498 22.3125 22.9498 23.6937 22.6311C24.4375 22.4186 24.9688 21.8873 25.1813 21.1436C25.5 19.7623 25.5 16.9998 25.5 16.9998C25.5 16.9998 25.5 14.2373 25.075 12.8561ZM15.3 19.5498V14.4498L19.7625 16.9998L15.3 19.5498Z" fill="white"/>
</svg>
